<svg xmlns="http://www.w3.org/2000/svg" width="240" height="240" fill="none" viewBox="0 0 240 240">
  <path fill="#18181B" d="M0 120c0 66 54 120 120 120s120-54 120-120S186 0 120 0 0 54 0 120Z"/>
  <path fill="#E4E4E7" d="M99.876 201.877c-5.408-9.013-12.619-17.125-21.632-22.533-9.013-5.408-18.026-9.914-28.842-12.618-2.925-.732-4.282 3.101-2.704 5.407 11.717 17.126 29.743 29.744 49.572 35.152 3.05.832 5.437-2.356 3.606-5.408Zm80.218-148.718c12.618 10.816 21.828 25.184 26.138 41.46.642 2.424.193 3.618-1.802 4.507-22.487 10.021-41.461 24.336-56.784 43.264-15.322 18.928-25.339 42.445-29.744 64.895-.36 1.837-1.969 2.704-3.605 2.704-1.803 0-4.309-.546-6.309-.901-1.857-.33-2.704-2.048-2.704-3.605-.902-22.534-7.21-45.968-18.928-65.797-11.717-20.731-27.941-36.955-47.77-49.573-2.22-1.412-2.556-2.679-1.803-4.507 6.31-15.322 16.224-27.94 28.843-37.855 2.103-1.653 3.975-.877 5.407 1.802 20.73 38.757 33.349 80.218 38.757 123.482.17 2.147.982 8.372 1.31 10.35.394 2.381 3.984 3.308 5.306 0 .87-2.177 2.821-6.411 3.53-8.416 15.768-44.552 20.041-92.164 12.388-138.936-.563-3.436 1.194-5.058 4.506-4.506 16.224 2.704 30.645 10.816 43.264 21.632Zm13.519 107.264c-27.941 6.309-53.178 21.631-71.204 43.263-2.07 2.484.199 6.466 2.704 6.31 14.421-.902 28.842-5.408 41.461-12.619 12.618-7.211 23.434-18.027 30.645-30.645 2.588-4.537-.389-7.035-3.606-6.309Z"/>
</svg>
